<svg width="530" height="150" viewBox="0 0 530 150" fill="none" xmlns="http://www.w3.org/2000/svg">
<path d="M142.807 40.6L136.107 90H135.907L130.307 40.6H112.307L124.507 112H144.907L151.107 64H151.307L157.507 112H177.907L190.107 40.6H172.107L167.107 90H166.907L159.607 40.6H142.807ZM231.639 76.3C231.639 71.5 231.705 67.5333 231.839 64.4C231.972 61.2 232.239 58.6667 232.639 56.8C233.105 54.9333 233.739 53.6333 234.539 52.9C235.405 52.1667 236.539 51.8 237.939 51.8C239.339 51.8 240.439 52.1667 241.239 52.9C242.105 53.6333 242.739 54.9333 243.139 56.8C243.605 58.6667 243.905 61.2 244.039 64.4C244.172 67.5333 244.239 71.5 244.239 76.3C244.239 81.1 244.172 85.1 244.039 88.3C243.905 91.4333 243.605 93.9333 243.139 95.8C242.739 97.6667 242.105 98.9667 241.239 99.7C240.439 100.433 239.339 100.8 237.939 100.8C236.539 100.8 235.405 100.433 234.539 99.7C233.739 98.9667 233.105 97.6667 232.639 95.8C232.239 93.9333 231.972 91.4333 231.839 88.3C231.705 85.1 231.639 81.1 231.639 76.3ZM212.439 76.3C212.439 82.9667 212.872 88.6667 213.739 93.4C214.605 98.0667 216.039 101.9 218.039 104.9C220.039 107.833 222.672 109.933 225.939 111.2C229.205 112.467 233.205 113.1 237.939 113.1C242.672 113.1 246.672 112.467 249.939 111.2C253.205 109.933 255.839 107.833 257.839 104.9C259.839 101.9 261.272 98.0667 262.139 93.4C263.005 88.6667 263.439 82.9667 263.439 76.3C263.439 69.6333 263.005 63.9667 262.139 59.3C261.272 54.5667 259.839 50.7333 257.839 47.8C255.839 44.8 253.205 42.6333 249.939 41.3C246.672 39.9 242.672 39.2 237.939 39.2C233.205 39.2 229.205 39.9 225.939 41.3C222.672 42.6333 220.039 44.8 218.039 47.8C216.039 50.7333 214.605 54.5667 213.739 59.3C212.872 63.9667 212.439 69.6333 212.439 76.3ZM308.705 70.8V54H312.305C315.105 54 317.105 54.6333 318.305 55.9C319.572 57.1667 320.205 59.3 320.205 62.3C320.205 64.8333 319.572 66.9 318.305 68.5C317.038 70.0333 315.072 70.8 312.405 70.8H308.705ZM290.105 40.6V112H308.705V83.4H313.605C314.738 83.4 315.672 83.5667 316.405 83.9C317.205 84.1667 317.838 84.7 318.305 85.5C318.838 86.2333 319.205 87.2667 319.405 88.6C319.605 89.9333 319.705 91.6 319.705 93.6V98.4C319.705 99.1333 319.705 100.1 319.705 101.3C319.772 102.433 319.838 103.633 319.905 104.9C320.038 106.167 320.205 107.433 320.405 108.7C320.672 109.967 321.038 111.067 321.505 112H341.305V111C340.705 110.667 340.272 110.333 340.005 110C339.738 109.6 339.472 109.2 339.205 108.8C339.005 108.4 338.838 107.833 338.705 107.1C338.572 106.367 338.472 105.567 338.405 104.7C338.338 103.767 338.305 102.8 338.305 101.8C338.305 100.8 338.305 99.8333 338.305 98.9V92.8C338.305 88 337.472 84.2333 335.805 81.5C334.138 78.7667 331.072 77.2 326.605 76.8V76.6C330.872 75.9333 333.972 74.1333 335.905 71.2C337.838 68.2667 338.805 64.4 338.805 59.6C338.805 56.8667 338.438 54.3333 337.705 52C337.038 49.6667 335.905 47.6667 334.305 46C332.772 44.2667 330.738 42.9333 328.205 42C325.738 41.0667 322.738 40.6 319.205 40.6H290.105ZM366.827 40.6V112H385.427V93.1L389.327 87.1L400.227 112H421.427L401.227 71.8L419.227 40.6H399.427L385.627 68H385.427V40.6H366.827Z" fill="#303030"/>
<rect x="235" y="147" width="60" height="2" fill="#34C759"/>
</svg>
